<svg class="svg-icon" style="width: 1em; height: 1em;vertical-align: middle;fill: currentColor;overflow: hidden;" viewBox="0 0 1024 1024" version="1.1" xmlns="http://www.w3.org/2000/svg"><path d="M485.00456 947.2s-97.6-12.8-104 12.8c-6.4 25.6-3.2 4.8-60.8 16s1.6 57.6 104 44.8 92.8-9.6 145.6-4.8 155.2 1.6 124.8-20.8-1.6-52.8-57.6-48-89.6-14.4-152 0zM389.00456 339.2c337.6-44.8 395.2 297.6 395.2 297.6-70.4-44.8-121.6-36.8-163.2 28.8-72-44.8-132.8-36.8-179.2 30.4l-9.6 3.2c-60.8-46.4-158.4-28.8-200 36.8C187.40456 691.2 134.60456 691.2 78.60456 763.2c0 0-54.4-329.6 259.2-409.6l9.6-64 41.6 49.6z" fill="#FDDFDF" /><path d="M229.00456 734.4c-4.8 0-8-3.2-9.6-8-12.8-252.8 129.6-377.6 136-382.4 3.2-3.2 9.6-3.2 12.8 1.6 3.2 3.2 3.2 9.6-1.6 12.8-1.6 1.6-140.8 124.8-129.6 368 1.6 4.8-3.2 8-8 8z" fill="#EE9B9B" /><path d="M619.40456 667.2c-4.8 0-8-3.2-9.6-8-9.6-203.2-249.6-299.2-252.8-299.2-4.8-1.6-6.4-6.4-4.8-11.2 1.6-4.8 6.4-6.4 11.2-4.8 3.2 1.6 252.8 100.8 264 315.2 1.6 3.2-1.6 8-8 8z" fill="#E59797" /><path d="M523.40456 998.4c-8 0-12.8-6.4-12.8-12.8 0-60.8-6.4-128-16-185.6-16-86.4-46.4-161.6-46.4-161.6-3.2-6.4 0-14.4 8-17.6 6.4-3.2 14.4 0 17.6 8 1.6 3.2 32 78.4 48 168 11.2 60.8 16 128 16 190.4-1.6 4.8-8 11.2-14.4 11.2z" fill="#FDDFDF" /><path d="M435.40456 702.4c-4.8 0-8-3.2-9.6-8 0-1.6-6.4-102.4-20.8-176s-51.2-163.2-51.2-163.2c-1.6-4.8 0-9.6 4.8-11.2 4.8-1.6 9.6 0 11.2 4.8 1.6 3.2 38.4 91.2 52.8 166.4 14.4 73.6 20.8 176 20.8 177.6 1.6 4.8-3.2 8-8 9.6z" fill="#E59797" /><path d="M749.00456 0h17.6v54.4h-17.6V0zM883.40456 41.6l12.8 12.8-38.4 38.4-12.8-12.8 38.4-38.4zM949.00456 164.8v17.6h-54.4v-17.6h54.4zM909.00456 297.6l-12.8 12.8-38.4-38.4 12.8-12.8 38.4 38.4zM784.20456 363.2h-17.6v-54.4h17.6v54.4zM649.80456 323.2l-12.8-12.8 38.4-38.4 12.8 12.8-38.4 38.4zM584.20456 200v-17.6h54.4v17.6h-54.4zM625.80456 65.6l12.8-12.8 38.4 38.4-12.8 12.8-38.4-38.4zM768.20456 91.2c51.2 0 91.2 40 91.2 91.2s-41.6 91.2-91.2 91.2c-51.2 0-91.2-40-91.2-91.2s40-91.2 91.2-91.2z" fill="#EE9B9B" /></svg>